<?xml version="1.0" standalone="no"?>
<!DOCTYPE svg PUBLIC "-//W3C//DTD SVG 20010904//EN"
 "http://www.w3.org/TR/2001/REC-SVG-20010904/DTD/svg10.dtd">
<svg version="1.0" xmlns="http://www.w3.org/2000/svg"
 width="48.000000pt" height="48.000000pt" viewBox="0 0 48.000000 48.000000"
 preserveAspectRatio="xMidYMid meet">

<g transform="translate(0.000000,48.000000) scale(0.100000,-0.100000)"
fill="#000000" stroke="none">
<path d="M60 400 c0 -17 7 -20 45 -20 49 0 107 -20 139 -48 28 -25 56 -91 56
-134 0 -35 -2 -37 -34 -40 l-35 -3 45 -47 44 -47 44 47 45 47 -35 3 c-33 3
-34 5 -34 45 -1 117 -105 216 -227 217 -46 0 -53 -3 -53 -20z"/>
</g>
</svg>
