<?xml version="1.0" encoding="utf-8"?>
<!-- Generator: Adobe Illustrator 26.1.0, SVG Export Plug-In . SVG Version: 6.00 Build 0)  -->
<svg version="1.1" id="Layer_1" xmlns="http://www.w3.org/2000/svg" xmlns:xlink="http://www.w3.org/1999/xlink" x="0px" y="0px"
	 viewBox="0 0 479.8 479.7" style="enable-background:new 0 0 479.8 479.7;" xml:space="preserve">
<style type="text/css">
	.st0{fill:#8789FD;}
</style>
<g>
	<g>
		<path class="st0" d="M479.8,247.5c0,42.7-8.6,78.6-26.7,112.2c-20.7,38.5-50,68.6-87.9,90.3c-24.1,13.8-49.9,22.7-77.4,27
			c-18.1,2.8-36.3,3.3-54.5,1.9c-22.5-1.7-44.3-6.6-65.4-14.8c-23.7-9.2-45.2-22-64.6-38.3c-8.6-7.2-16.4-15-24-23.3
			c-3.7-4-8-7.5-11.8-11.4c-31.2-31.2-51.8-68.4-61.8-111.3c-4.7-20.1-6.5-40.6-5.4-61.2C3,168,20.2,123,52.3,83.8
			c21-25.7,46.6-45.8,76.3-60.4c21.6-10.6,44.3-17.6,68.1-21c11-1.6,22-2.5,33-2.4c53.9,0.6,102,17.6,143.9,51.6
			c9.5,7.7,18.1,16.3,26.5,25.3c5.3,5.6,11.3,10.6,16.5,16.2c31,33,50.9,71.7,59.2,116.2C478.6,223.5,479.9,237.7,479.8,247.5z
			 M394,115.8c0.1,0.2,0.3,0.5,0.4,0.7c0,0.5,0.2,0.8,0.5,1.1c1,1.6,1.9,3.2,2.9,4.8c19,29.7,29.2,62.2,31.1,97.4
			c0.9,16.6-0.3,33-3.8,49.3c-9.9,46.4-33,84.9-69.7,114.9c-36.5,29.9-78.7,44.5-125.8,45.1c-9.1,0.1-18.3-0.7-27.4-1.9
			c-20.4-2.8-39.9-8.7-58.6-17.5c-9.2-4.3-17.8-9.7-26.5-15c-0.2-0.4-0.6-0.6-1.1-0.5c-0.1-0.3-0.1-0.5-0.4-0.2
			c0.1,0.1,0.2,0.2,0.4,0.3c0.3,0.3,0.6,0.5,0.9,0.8c0.6,0.7,1.2,1.5,2,2.2c6.7,6,13.8,11.5,21.2,16.6
			c24.9,16.8,52.1,27.4,81.9,31.8c19.9,2.9,39.8,2.8,59.6-0.3c22.3-3.5,43.4-10.7,63.1-21.5c34.2-18.8,60.8-45.4,79.4-79.7
			c17.2-31.7,25-65.7,23.4-101.8c-0.5-12.1-2.1-24.1-4.8-35.9c-6.1-26.4-17.2-50.4-33.2-72.2c-4.4-5.9-8.8-11.8-14.2-16.9
			c-0.3-0.3-0.5-0.6-0.8-0.9C394.4,116.1,394.2,115.9,394,115.8c-0.1-0.2,0-0.6-0.4-0.2C393.7,115.6,393.8,115.7,394,115.8z
			 M50.7,363.5c0.1,0.1,0.2,0.3,0.3,0.4c0.3-0.3,0.1-0.4-0.1-0.6c-0.2-0.4-0.4-0.7-0.5-1.1c-0.7-1.5-1.4-2.9-2.1-4.3
			c-15.7-29.4-24.5-60.8-26.4-94.1c-1.1-18.7,0-37.3,3.6-55.8c8.6-44.6,28.7-83.3,60-116.1c19.8-20.8,42.8-37.1,68.9-49.3
			c28.4-13.2,58.2-20.1,89.5-21.2c14.3-0.5,28.5,0.5,42.7,2.7c25.3,4,49.3,12.1,71.9,24.1c1.6,0.8,3,2,4.8,2.4
			c0.2,0.1,0.4,0.3,0.7,0.4c0.2,0.5,0.7,0.6,1.1,0.5c0,0.2,0,0.5,0.3,0.2c-0.1-0.1-0.3-0.1-0.4-0.2c-0.1-0.5-0.5-0.6-1-0.6
			c-0.2-0.2-0.4-0.4-0.5-0.5c-0.6-0.5-1.2-1.1-1.8-1.6c-13.9-10.3-28.9-18.8-44.8-25.6c-28.3-12.1-57.9-17.9-88.5-17.8
			c-10.4,0-20.8,0.9-31.1,2.4c-21.4,3.1-41.9,9.1-61.4,18.2c-32,14.9-59.1,36-81.1,63.6C24.3,127.5,8.2,170.8,5.7,219.2
			c-0.8,14.2,0,28.4,2.1,42.4c4.3,28.7,13.7,55.7,28.5,80.7c4.2,7,8.4,14,13.7,20.2C50.3,362.8,50.5,363.1,50.7,363.5z M251.9,53.5
			c-15.3-0.1-30.3,1.8-45.1,5.3C177.4,65.9,151,79,127.5,98c-22,17.9-39.6,39.4-52.3,64.7c-15.9,31.6-23.3,65-21.2,100.5
			c0.6,9.2,1.8,18.4,3.7,27.4c4,19.1,10.6,37.3,20.1,54.3c5.2,9.3,10.3,18.8,18.6,25.9c3.7,3.2,7.2,6.5,11,9.5
			c40.7,32.2,86.8,46.6,138.6,42.5c16.5-1.3,32.5-4.8,48-10.3c40.6-14.6,73-39.7,97-75.5c24.5-36.6,35.1-77.1,32.3-121.1
			c-1-16-4.1-31.6-9.1-46.9c-7.7-23.5-19.5-44.7-35.3-63.7c-4.7-5.7-9.2-11.8-15.2-16C330.2,65.8,292.8,53.9,251.9,53.5z
			 M51.7,364.5l-0.1,0.2l0.2,0L51.7,364.5z"/>
		<path class="st0" d="M304.9,190.4c0,20.6,0.2,41.2-0.1,61.7c-0.3,19.4-1.4,38.8-6.4,57.6c-3.3,12.2-8,23.9-17.1,33.1
			c-9,9.1-20.1,14.4-32.6,16.5c-17,2.9-34,2.7-50.7-2c-7.6-2.2-14.8-5.5-21.5-9.8c-1.4-0.9-1.7-1.7-1.1-3.3
			c1.9-4.9,3.6-9.8,5.3-14.7c0.5-1.4,0.8-2.1,2.5-1c11.7,7.1,24.4,10.5,38,11.2c10,0.5,19.7-0.1,29.1-3.6
			c12.4-4.6,19.5-14.1,23.9-26.1c3.5-9.8,5.1-20,5.8-30.3c2.7-40.2,1.1-80.5,1.5-120.7c0.1-12.6,0.1-25.2,0-37.8c0-2.5,0.7-3,3-2.9
			c5.9,0.2,11.9,0.2,17.8,0c2.2-0.1,2.7,0.7,2.7,2.7C305,144.2,305,167.3,304.9,190.4C305,190.4,305,190.4,304.9,190.4z"/>
	</g>
</g>
</svg>
